<svg width="80" height="80" viewBox="0 0 80 80" fill="none" xmlns="http://www.w3.org/2000/svg">
<path d="M40 80C62.0914 80 80 62.0914 80 40C80 17.9086 62.0914 0 40 0C17.9086 0 0 17.9086 0 40C0 62.0914 17.9086 80 40 80Z" fill="#4F4C4C"/>
<path fill-rule="evenodd" clip-rule="evenodd" d="M54.544 42.9774C53.1653 49.7479 47.1776 54.8429 39.9999 54.8429C32.8222 54.8429 26.8345 49.7479 25.4558 42.9774H4.82678C6.33884 61.079 21.5077 75.2992 39.9998 75.2992C58.4921 75.2992 73.661 61.079 75.1732 42.9774H54.544Z" fill="#F2F2F2"/>
<path fill-rule="evenodd" clip-rule="evenodd" d="M39.9999 25.2525C47.1422 25.2525 53.1005 30.2968 54.4725 37H75C73.4954 19.0787 58.401 5 39.9998 5C21.5989 5 6.50472 19.0787 5 37H25.5274C26.8994 30.2968 32.8574 25.2525 39.9999 25.2525Z" fill="#F02D2D"/>
<circle cx="40" cy="40" r="11" fill="#F2F2F2"/>
</svg>
